<svg xmlns="http://www.w3.org/2000/svg" xmlns:xlink="http://www.w3.org/1999/xlink" version="1.1" x="0px" y="0px" width="100px" height="100px" viewBox="0 0 100 100" enable-background="new 0 0 100 100" xml:space="preserve">
<g id="Captions">
</g>
<g id="Your_Icon">
	<path d="M24.292,82.25h51.417c8.27,0,15-6.729,15-15v-34.5c0-0.006-0.002-0.012-0.002-0.017c0-0.018-0.002-0.033-0.002-0.051   c-0.037-8.24-6.748-14.933-14.996-14.933H24.292c-8.248,0-14.96,6.692-14.996,14.933c0,0.018-0.003,0.033-0.003,0.051   c0,0.005-0.001,0.011-0.001,0.017v34.5C9.292,75.521,16.02,82.25,24.292,82.25z M24.292,25.75h51.417   c3.193,0,5.889,2.152,6.725,5.081l-2.799,1.919L50,53.067L20.365,32.75l-2.8-1.919C18.403,27.902,21.098,25.75,24.292,25.75z    M82.709,67.25c0,3.859-3.141,7-7,7H24.292c-3.859,0-7-3.141-7-7V40.342l30.447,20.874c0.682,0.468,1.471,0.701,2.262,0.701   c0.789,0,1.58-0.233,2.261-0.701l30.447-20.874V67.25z"/>
</g>
</svg>