<svg xmlns="http://www.w3.org/2000/svg" xmlns:xlink="http://www.w3.org/1999/xlink" version="1.1" id="Layer_1" x="0px" y="0px" width="100px" height="100px" viewBox="0 0 100 100" enable-background="new 0 0 100 100" xml:space="preserve">
<g id="Captions">
	<rect x="-192" width="185" height="99"/>
	<rect y="-36" width="100" height="30"/>
	<text transform="matrix(1 0 0 1 66 -19.5)" fill="#000000" font-family="'Helvetica'" font-size="2.4">http://thenounproject.com</text>
	<text transform="matrix(1 0 0 1 7.166 -24.5)" fill="#000000" font-family="'Helvetica-Bold'" font-size="6.1578">The Noun Project</text>
	<text transform="matrix(1 0 0 1 8.2861 -19.7002)" fill="#000000" font-family="'Helvetica-Bold'" font-size="4">Icon Template</text>
	<text transform="matrix(1 0 0 1 -178.5 10.5)" fill="#000000" font-family="'Helvetica-Bold'" font-size="6.1578">Reminders</text>
	<line fill="#000000" stroke="#FFFFFF" stroke-miterlimit="10" x1="8" y1="-14.5" x2="18" y2="-14.5"/>
	<line fill="#000000" stroke="#FFFFFF" stroke-miterlimit="10" x1="-179" y1="16.5" x2="-162" y2="16.5"/>
	<g>
		<g>
			<g>
				<rect x="-170.802" y="31.318" fill="#000000" width="8.721" height="8.642"/>
				<path fill="#000000" d="M-164.455,42.312h4.747v-4.703h-4.747V42.312z M-159.266,42.749h-5.63V37.17h5.63V42.749      L-159.266,42.749z M-166.221,44.062h8.279v-8.203h-8.279V44.062L-166.221,44.062z M-157.5,44.5h-9.163v-9.079h9.163V44.5      L-157.5,44.5z"/>
				<polygon fill="#000000" points="-166.149,44.133 -166.292,43.991 -158.013,35.787 -157.871,35.929     "/>
			</g>
		</g>
	</g>
	<rect x="-179" y="58" fill="none" width="35" height="32.5"/>
	<text transform="matrix(1 0 0 1 -179 60.1572)" fill="#000000" font-family="'Helvetica-Bold'" font-size="3">Strokes</text>
	<text transform="matrix(1 0 0 1 -179 65.1572)" fill="#000000" font-family="'Helvetica'" font-size="2.4">Try to keep strokes at 4px</text>
	<text transform="matrix(1 0 0 1 -179 70.1572)" fill="#000000" font-family="'Helvetica'" font-size="2.4">Minimum stroke weight is 2px</text>
	<text transform="matrix(1 0 0 1 -179 74.6572)" fill="#000000" font-family="'Helvetica'" font-size="2.4">For thicker strokes use even </text>
	<text transform="matrix(1 0 0 1 -179 77.6572)" fill="#000000" font-family="'Helvetica'" font-size="2.4">numbers: 6px, 8px etc.</text>
	<text transform="matrix(1 0 0 1 -179 82.1572)" fill="#000000" font-family="'Helvetica-Bold'" font-size="2.4">Remember to expand strokes </text>
	<text transform="matrix(1 0 0 1 -179 85.1572)" fill="#000000" font-family="'Helvetica-Bold'" font-size="2.4">before saving as an SVG </text>
	<rect x="-136.5" y="58" fill="none" width="35" height="32.5"/>
	<text transform="matrix(1 0 0 1 -136.5 60.1572)" fill="#000000" font-family="'Helvetica-Bold'" font-size="3">Size</text>
	<text transform="matrix(1 0 0 1 -136.5 65.1572)" fill="#000000" font-family="'Helvetica'" font-size="2.4">Cannot be wider or taller than </text>
	<text transform="matrix(1 0 0 1 -136.5 68.6572)" fill="#000000" font-family="'Helvetica'" font-size="2.4">100px (artboard size)</text>
	<text transform="matrix(1 0 0 1 -136.5 73.6572)" fill="#000000" font-family="'Helvetica'" font-size="2.4">Scale your icon to fill as much of </text>
	<text transform="matrix(1 0 0 1 -136.5 76.6572)" fill="#000000" font-family="'Helvetica'" font-size="2.4">the artboard as possible</text>
	<rect x="-94" y="58" fill="none" width="35" height="32.5"/>
	<text transform="matrix(1 0 0 1 -94 60.1572)" fill="#000000" font-family="'Helvetica-Bold'" font-size="3">Ungroup</text>
	<text transform="matrix(1 0 0 1 -94 65.1572)" fill="#000000" font-family="'Helvetica'" font-size="2.4">If your design has more than one </text>
	<text transform="matrix(1 0 0 1 -94 68.1572)" fill="#000000" font-family="'Helvetica'" font-size="2.4">shape, make sure to ungroup</text>
	<rect x="-50" y="58" fill="none" width="35" height="32.5"/>
	<text transform="matrix(1 0 0 1 -50 60.1572)" fill="#000000" font-family="'Helvetica-Bold'" font-size="3">Save as</text>
	<text transform="matrix(1 0 0 1 -50 65.1572)" fill="#000000" font-family="'Helvetica'" font-size="2.4">Save as .SVG and make sure </text>
	<text transform="matrix(1 0 0 1 -50 68.1572)" fill="#000000" font-family="'Helvetica'" font-size="2.4">&#8220;Use Artboards&#8221; is checked</text>
	<text transform="matrix(1.0074 0 0 1 -125.542 30.5938)" fill="#000000" font-family="'Helvetica'" font-size="2.5731">100px</text>
	<text transform="matrix(1.0074 0 0 1 -41 39)" fill="#000000" font-family="'Helvetica-Bold'" font-size="5.1462">.SVG</text>
	<rect x="-126.514" y="34.815" fill="#000000" width="10.261" height="10.185"/>
	<rect x="-126.477" y="31.766" fill="#000000" width="0.522" height="2.337"/>
	<rect x="-116.812" y="31.766" fill="#000000" width="0.523" height="2.337"/>
	<rect x="-127" y="32.337" fill="#000000" width="11.233" height="0.572"/>
	<g>
		<rect x="-83.805" y="33.844" fill="#000000" width="10.305" height="10.156"/>
		<rect x="-76.809" y="28.707" fill="#000000" width="3.308" height="3.261"/>
	</g>
	<rect x="-178.5" y="22.5" fill="#000000" stroke="#FFFFFF" stroke-miterlimit="10" width="30" height="30"/>
	<rect x="-136.5" y="22.5" fill="#000000" stroke="#FFFFFF" stroke-miterlimit="10" width="30" height="30"/>
	<rect x="-93.5" y="22.5" fill="#000000" stroke="#FFFFFF" stroke-miterlimit="10" width="30" height="30"/>
	<rect x="-49.5" y="22.5" fill="#000000" stroke="#FFFFFF" stroke-miterlimit="10" width="30" height="30"/>
</g>
<path d="M50,80.357c-1.951,0-19.061-0.193-19.061-6.891l-4.699-39.65c-0.144-1.233,0.738-2.353,1.972-2.498  c1.207-0.161,2.353,0.735,2.499,1.97l4.708,39.873c0.935,0.967,6.032,2.695,14.581,2.695c8.596,0,13.705-1.752,14.593-2.719  l4.693-39.849c0.146-1.233,1.277-2.127,2.499-1.97c1.233,0.145,2.115,1.264,1.972,2.498L69.04,73.73  C69.055,80.164,51.951,80.357,50,80.357z"/>
<path d="M55.795,29.028c-1.242,0-2.25-1.008-2.25-2.25c0-1.43-1.62-2.637-3.539-2.637c-1.922,0-3.545,1.207-3.545,2.637  c0,1.242-1.008,2.25-2.25,2.25s-2.25-1.008-2.25-2.25c0-3.935,3.609-7.137,8.045-7.137c4.433,0,8.039,3.202,8.039,7.137  C58.045,28.021,57.037,29.028,55.795,29.028z"/>
<path d="M41.275,72.072c-1.166,0-2.153-0.902-2.241-2.086l-1.813-24.66c-0.091-1.239,0.841-2.319,2.08-2.41  c1.239-0.07,2.317,0.841,2.408,2.079l1.813,24.661c0.091,1.238-0.841,2.316-2.08,2.41C41.387,72.07,41.331,72.072,41.275,72.072z"/>
<path d="M58.725,72.072c-0.056,0-0.111-0.002-0.167-0.006c-1.239-0.094-2.171-1.172-2.08-2.41l1.813-24.661  c0.094-1.238,1.216-2.152,2.408-2.079c1.239,0.091,2.171,1.17,2.08,2.41l-1.813,24.66C60.878,71.17,59.891,72.072,58.725,72.072z"/>
<path d="M50,72.072c-1.242,0-2.25-1.008-2.25-2.25V45.161c0-1.242,1.008-2.25,2.25-2.25s2.25,1.008,2.25,2.25v24.662  C52.25,71.064,51.242,72.072,50,72.072z"/>
<path d="M50,40.699c-12.612,0-25.38-3.725-25.38-10.844c0-4.295,4.849-7.808,13.307-9.636c1.195-0.265,2.411,0.51,2.675,1.723  c0.261,1.216-0.51,2.413-1.726,2.675c-7.107,1.538-9.756,4.028-9.756,5.238c0,2.525,8.329,6.344,20.88,6.344  s20.88-3.819,20.88-6.344c0-1.252-2.76-3.806-10.169-5.326c-1.219-0.25-2.004-1.44-1.752-2.657c0.249-1.217,1.436-2.001,2.654-1.752  c8.748,1.796,13.767,5.344,13.767,9.735C75.38,36.974,62.612,40.699,50,40.699z"/>
</svg>